<svg width="24" height="20" viewBox="0 0 24 20" fill="none" xmlns="http://www.w3.org/2000/svg">
<path d="M22 11.29L18.67 1.29001C18.6408 1.21825 18.5923 1.15595 18.53 1.11001C18.4708 1.04997 18.3935 1.01128 18.3099 1.00001C18.2278 0.998544 18.1473 1.02304 18.08 1.07001C18.0176 1.11595 17.9691 1.17825 17.94 1.25001L15.68 7.92001H8.31995L6.09995 1.26001C6.08207 1.19264 6.0477 1.13079 5.99995 1.08001C5.92612 1.02218 5.83352 0.993682 5.73995 1.00001C5.65782 0.998544 5.57733 1.02304 5.50995 1.07001C5.44758 1.11595 5.39912 1.17825 5.36995 1.25001L1.99995 11.29C1.95116 11.4391 1.95102 11.5999 1.99955 11.7491C2.04809 11.8982 2.14277 12.0281 2.26995 12.12L12 19L21.69 12.12C21.8281 12.0373 21.934 11.9101 21.9903 11.7593C22.0466 11.6085 22.05 11.443 22 11.29Z" stroke="#F1F1F1" stroke-width="2" stroke-linecap="round" stroke-linejoin="round"/>
</svg>
